<svg width="15000" height="9000" viewBox="0 0 15000 9000" fill="none" xmlns="http://www.w3.org/2000/svg">
<path d="M13500 1500H12000V3000H13500V1500Z" fill="#E393AB"/>
<path d="M10500 1500H9000V3000H10500V1500Z" fill="#E393AB"/>
<path d="M6000 0H4500V1500H6000V0Z" fill="#E393AB"/>
<path d="M15000 0H13500V1500H15000V0Z" fill="#E393AB"/>
<path d="M1500 1500H0V3000H1500V1500Z" fill="#E393AB"/>
<path d="M3000 0H1500V1500H3000V0Z" fill="#E393AB"/>
<path d="M4500 1500H3000V3000H4500V1500Z" fill="#E393AB"/>
<path d="M7500 1500H6000V3000H7500V1500Z" fill="#E393AB"/>
<path d="M9000 0H7500V1500H9000V0Z" fill="#E393AB"/>
<path d="M12000 0H10500V1500H12000V0Z" fill="#E393AB"/>
<path d="M3000 1500H1500V3000H3000V1500Z" fill="#FE6F2F"/>
<path d="M13500 0H12000V1500H13500V0Z" fill="#FE6F2F"/>
<path d="M6000 1500H4500V3000H6000V1500Z" fill="#FE6F2F"/>
<path d="M9000 1500H7500V3000H9000V1500Z" fill="#FE6F2F"/>
<path d="M15000 1500H13500V3000H15000V1500Z" fill="#FE6F2F"/>
<path d="M12000 1500H10500V3000H12000V1500Z" fill="#FE6F2F"/>
<path d="M1500 0H0V1500H1500V0Z" fill="#FE6F2F"/>
<path d="M4500 0H3000V1500H4500V0Z" fill="#FE6F2F"/>
<path d="M7500 0H6000V1500H7500V0Z" fill="#FE6F2F"/>
<path d="M10500 0H9000V1500H10500V0Z" fill="#FE6F2F"/>
<path d="M13500 7500H12000V9000H13500V7500Z" fill="#E393AB"/>
<path d="M10500 7500H9000V9000H10500V7500Z" fill="#E393AB"/>
<path d="M6000 6000H4500V7500H6000V6000Z" fill="#E393AB"/>
<path d="M15000 6000H13500V7500H15000V6000Z" fill="#E393AB"/>
<path d="M1500 7500H0V9000H1500V7500Z" fill="#E393AB"/>
<path d="M3000 6000H1500V7500H3000V6000Z" fill="#E393AB"/>
<path d="M4500 7500H3000V9000H4500V7500Z" fill="#E393AB"/>
<path d="M7500 7500H6000V9000H7500V7500Z" fill="#E393AB"/>
<path d="M9000 6000H7500V7500H9000V6000Z" fill="#E393AB"/>
<path d="M12000 6000H10500V7500H12000V6000Z" fill="#E393AB"/>
<path d="M3000 7500H1500V9000H3000V7500Z" fill="#FE6F2F"/>
<path d="M13500 6000H12000V7500H13500V6000Z" fill="#FE6F2F"/>
<path d="M6000 7500H4500V9000H6000V7500Z" fill="#FE6F2F"/>
<path d="M9000 7500H7500V9000H9000V7500Z" fill="#FE6F2F"/>
<path d="M15000 7500H13500V9000H15000V7500Z" fill="#FE6F2F"/>
<path d="M12000 7500H10500V9000H12000V7500Z" fill="#FE6F2F"/>
<path d="M1500 6000H0V7500H1500V6000Z" fill="#FE6F2F"/>
<path d="M4500 6000H3000V7500H4500V6000Z" fill="#FE6F2F"/>
<path d="M7500 6000H6000V7500H7500V6000Z" fill="#FE6F2F"/>
<path d="M10500 6000H9000V7500H10500V6000Z" fill="#FE6F2F"/>
<path d="M13500 4500H12000V6000H13500V4500Z" fill="#E393AB"/>
<path d="M10500 4500H9000V6000H10500V4500Z" fill="#E393AB"/>
<path d="M6000 3000H4500V4500H6000V3000Z" fill="#E393AB"/>
<path d="M15000 3000H13500V4500H15000V3000Z" fill="#E393AB"/>
<path d="M1500 4500H0V6000H1500V4500Z" fill="#E393AB"/>
<path d="M3000 3000H1500V4500H3000V3000Z" fill="#E393AB"/>
<path d="M4500 4500H3000V6000H4500V4500Z" fill="#E393AB"/>
<path d="M7500 4500H6000V6000H7500V4500Z" fill="#E393AB"/>
<path d="M9000 3000H7500V4500H9000V3000Z" fill="#E393AB"/>
<path d="M12000 3000H10500V4500H12000V3000Z" fill="#E393AB"/>
<path d="M3000 4500H1500V6000H3000V4500Z" fill="#FE6F2F"/>
<path d="M13500 3000H12000V4500H13500V3000Z" fill="#FE6F2F"/>
<path d="M6000 4500H4500V6000H6000V4500Z" fill="#FE6F2F"/>
<path d="M9000 4500H7500V6000H9000V4500Z" fill="#FE6F2F"/>
<path d="M15000 4500H13500V6000H15000V4500Z" fill="#FE6F2F"/>
<path d="M12000 4500H10500V6000H12000V4500Z" fill="#FE6F2F"/>
<path d="M1500 3000H0V4500H1500V3000Z" fill="#FE6F2F"/>
<path d="M4500 3000H3000V4500H4500V3000Z" fill="#FE6F2F"/>
<path d="M7500 3000H6000V4500H7500V3000Z" fill="#FE6F2F"/>
<path d="M10500 3000H9000V4500H10500V3000Z" fill="#FE6F2F"/>
<path d="M1500 1500H2250C2664.21 1500 3000 1835.79 3000 2250V2250C3000 2664.21 2664.21 3000 2250 3000V3000C1835.79 3000 1500 2664.21 1500 2250V1500Z" fill="#E393AB"/>
<path d="M4500 1500H5250C5664.21 1500 6000 1835.79 6000 2250V2250C6000 2664.21 5664.21 3000 5250 3000V3000C4835.79 3000 4500 2664.21 4500 2250V1500Z" fill="#E393AB"/>
<path d="M9000 0H9750C10164.2 0 10500 335.786 10500 750V750C10500 1164.21 10164.2 1500 9750 1500V1500C9335.79 1500 9000 1164.21 9000 750V0Z" fill="#E393AB"/>
<path d="M0 0H750C1164.21 0 1500 335.786 1500 750V750C1500 1164.21 1164.21 1500 750 1500V1500C335.786 1500 0 1164.21 0 750V0Z" fill="#E393AB"/>
<path d="M13500 1500H14250C14664.2 1500 15000 1835.79 15000 2250V2250C15000 2664.21 14664.2 3000 14250 3000V3000C13835.8 3000 13500 2664.21 13500 2250V1500Z" fill="#E393AB"/>
<path d="M12000 0H12750C13164.2 0 13500 335.786 13500 750V750C13500 1164.21 13164.2 1500 12750 1500V1500C12335.8 1500 12000 1164.21 12000 750V0Z" fill="#E393AB"/>
<path d="M10500 1500H11250C11664.2 1500 12000 1835.79 12000 2250V2250C12000 2664.21 11664.2 3000 11250 3000V3000C10835.8 3000 10500 2664.21 10500 2250V1500Z" fill="#E393AB"/>
<path d="M7500 1500H8250C8664.21 1500 9000 1835.79 9000 2250V2250C9000 2664.21 8664.21 3000 8250 3000V3000C7835.79 3000 7500 2664.21 7500 2250V1500Z" fill="#E393AB"/>
<path d="M6000 0H6750C7164.21 0 7500 335.786 7500 750V750C7500 1164.21 7164.21 1500 6750 1500V1500C6335.79 1500 6000 1164.21 6000 750V0Z" fill="#E393AB"/>
<path d="M3000 0H3750C4164.21 0 4500 335.786 4500 750V750C4500 1164.21 4164.21 1500 3750 1500V1500C3335.79 1500 3000 1164.21 3000 750V0Z" fill="#E393AB"/>
<path d="M13500 2250C13500 2664.21 13164.2 3000 12750 3000V3000C12335.8 3000 12000 2664.21 12000 2250V2250C12000 1835.79 12335.8 1500 12750 1500H13500V2250Z" fill="#FE6F2F"/>
<path d="M2250 1500C1835.79 1500 1500 1164.21 1500 750V750C1500 335.786 1835.79 0 2250 0V0C2664.21 0 3000 335.786 3000 750V1500H2250Z" fill="#FE6F2F"/>
<path d="M10500 2250C10500 2664.21 10164.2 3000 9750 3000V3000C9335.79 3000 9000 2664.21 9000 2250V2250C9000 1835.79 9335.79 1500 9750 1500H10500V2250Z" fill="#FE6F2F"/>
<path d="M7500 2250C7500 2664.21 7164.21 3000 6750 3000V3000C6335.79 3000 6000 2664.21 6000 2250V2250C6000 1835.79 6335.79 1500 6750 1500H7500V2250Z" fill="#FE6F2F"/>
<path d="M1500 2250C1500 2664.21 1164.21 3000 750 3000V3000C335.786 3000 0 2664.21 0 2250V2250C0 1835.79 335.786 1500 750 1500H1500L1500 2250Z" fill="#FE6F2F"/>
<path d="M4500 2250C4500 2664.21 4164.21 3000 3750 3000V3000C3335.79 3000 3000 2664.21 3000 2250V2250C3000 1835.79 3335.79 1500 3750 1500H4500V2250Z" fill="#FE6F2F"/>
<path d="M14250 1500C13835.8 1500 13500 1164.21 13500 750V750C13500 335.786 13835.8 0 14250 0V0C14664.2 0 15000 335.786 15000 750V1500H14250Z" fill="#FE6F2F"/>
<path d="M11250 1500C10835.8 1500 10500 1164.21 10500 750V750C10500 335.786 10835.8 0 11250 0V0C11664.2 0 12000 335.786 12000 750V1500H11250Z" fill="#FE6F2F"/>
<path d="M8250 1500C7835.79 1500 7500 1164.21 7500 750V750C7500 335.786 7835.79 0 8250 0V0C8664.21 0 9000 335.786 9000 750V1500H8250Z" fill="#FE6F2F"/>
<path d="M5250 1500C4835.79 1500 4500 1164.21 4500 750V750C4500 335.786 4835.79 0 5250 0V0C5664.21 0 6000 335.786 6000 750V1500H5250Z" fill="#FE6F2F"/>
<path d="M1500 9000V8250C1500 7835.79 1835.79 7500 2250 7500V7500C2664.21 7500 3000 7835.79 3000 8250V8250C3000 8664.21 2664.21 9000 2250 9000H1500Z" fill="#E393AB"/>
<path d="M4500 9000V8250C4500 7835.79 4835.79 7500 5250 7500V7500C5664.21 7500 6000 7835.79 6000 8250V8250C6000 8664.21 5664.21 9000 5250 9000H4500Z" fill="#E393AB"/>
<path d="M9000 7500V6750C9000 6335.79 9335.79 6000 9750 6000V6000C10164.2 6000 10500 6335.79 10500 6750V6750C10500 7164.21 10164.2 7500 9750 7500H9000Z" fill="#E393AB"/>
<path d="M0 7500L0 6750C0 6335.79 335.786 6000 750 6000V6000C1164.21 6000 1500 6335.79 1500 6750V6750C1500 7164.21 1164.21 7500 750 7500H0Z" fill="#E393AB"/>
<path d="M13500 9000V8250C13500 7835.79 13835.8 7500 14250 7500V7500C14664.2 7500 15000 7835.79 15000 8250V8250C15000 8664.21 14664.2 9000 14250 9000H13500Z" fill="#E393AB"/>
<path d="M12000 7500V6750C12000 6335.79 12335.8 6000 12750 6000V6000C13164.2 6000 13500 6335.79 13500 6750V6750C13500 7164.21 13164.2 7500 12750 7500H12000Z" fill="#E393AB"/>
<path d="M10500 9000V8250C10500 7835.79 10835.8 7500 11250 7500V7500C11664.2 7500 12000 7835.79 12000 8250V8250C12000 8664.21 11664.2 9000 11250 9000H10500Z" fill="#E393AB"/>
<path d="M7500 9000V8250C7500 7835.79 7835.79 7500 8250 7500V7500C8664.21 7500 9000 7835.79 9000 8250V8250C9000 8664.21 8664.21 9000 8250 9000H7500Z" fill="#E393AB"/>
<path d="M6000 7500V6750C6000 6335.79 6335.79 6000 6750 6000V6000C7164.21 6000 7500 6335.79 7500 6750V6750C7500 7164.21 7164.21 7500 6750 7500H6000Z" fill="#E393AB"/>
<path d="M3000 7500V6750C3000 6335.79 3335.79 6000 3750 6000V6000C4164.21 6000 4500 6335.79 4500 6750V6750C4500 7164.21 4164.21 7500 3750 7500H3000Z" fill="#E393AB"/>
<path d="M13500 8250C13500 8664.21 13164.2 9000 12750 9000V9000C12335.8 9000 12000 8664.21 12000 8250V8250C12000 7835.79 12335.8 7500 12750 7500H13500V8250Z" fill="#FE6F2F"/>
<path d="M2250 7500C1835.79 7500 1500 7164.21 1500 6750V6750C1500 6335.79 1835.79 6000 2250 6000V6000C2664.21 6000 3000 6335.79 3000 6750V7500H2250Z" fill="#FE6F2F"/>
<path d="M10500 8250C10500 8664.21 10164.2 9000 9750 9000V9000C9335.79 9000 9000 8664.21 9000 8250V8250C9000 7835.79 9335.79 7500 9750 7500H10500V8250Z" fill="#FE6F2F"/>
<path d="M7500 8250C7500 8664.21 7164.21 9000 6750 9000V9000C6335.79 9000 6000 8664.21 6000 8250V8250C6000 7835.79 6335.79 7500 6750 7500H7500V8250Z" fill="#FE6F2F"/>
<path d="M1500 8250C1500 8664.21 1164.21 9000 750 9000V9000C335.786 9000 0 8664.21 0 8250V8250C0 7835.79 335.786 7500 750 7500H1500L1500 8250Z" fill="#FE6F2F"/>
<path d="M4500 8250C4500 8664.21 4164.21 9000 3750 9000V9000C3335.79 9000 3000 8664.21 3000 8250V8250C3000 7835.79 3335.79 7500 3750 7500H4500V8250Z" fill="#FE6F2F"/>
<path d="M14250 7500C13835.8 7500 13500 7164.21 13500 6750V6750C13500 6335.79 13835.8 6000 14250 6000V6000C14664.2 6000 15000 6335.79 15000 6750V7500H14250Z" fill="#FE6F2F"/>
<path d="M11250 7500C10835.8 7500 10500 7164.21 10500 6750V6750C10500 6335.79 10835.8 6000 11250 6000V6000C11664.2 6000 12000 6335.79 12000 6750V7500H11250Z" fill="#FE6F2F"/>
<path d="M8250 7500C7835.79 7500 7500 7164.21 7500 6750V6750C7500 6335.79 7835.79 6000 8250 6000V6000C8664.21 6000 9000 6335.79 9000 6750V7500H8250Z" fill="#FE6F2F"/>
<path d="M5250 7500C4835.79 7500 4500 7164.21 4500 6750V6750C4500 6335.79 4835.79 6000 5250 6000V6000C5664.21 6000 6000 6335.79 6000 6750V7500H5250Z" fill="#FE6F2F"/>
<path d="M1500 6000V5250C1500 4835.79 1835.79 4500 2250 4500V4500C2664.21 4500 3000 4835.79 3000 5250V5250C3000 5664.21 2664.21 6000 2250 6000H1500Z" fill="#E393AB"/>
<path d="M4500 6000V5250C4500 4835.79 4835.79 4500 5250 4500V4500C5664.21 4500 6000 4835.79 6000 5250V5250C6000 5664.21 5664.21 6000 5250 6000H4500Z" fill="#E393AB"/>
<path d="M9000 4500V3750C9000 3335.79 9335.79 3000 9750 3000V3000C10164.2 3000 10500 3335.79 10500 3750V3750C10500 4164.21 10164.2 4500 9750 4500H9000Z" fill="#E393AB"/>
<path d="M0 4500L0 3750C0 3335.79 335.786 3000 750 3000V3000C1164.21 3000 1500 3335.79 1500 3750V3750C1500 4164.21 1164.21 4500 750 4500H0Z" fill="#E393AB"/>
<path d="M13500 6000V5250C13500 4835.79 13835.8 4500 14250 4500V4500C14664.2 4500 15000 4835.79 15000 5250V5250C15000 5664.21 14664.2 6000 14250 6000H13500Z" fill="#E393AB"/>
<path d="M12000 4500V3750C12000 3335.79 12335.8 3000 12750 3000V3000C13164.2 3000 13500 3335.79 13500 3750V3750C13500 4164.21 13164.2 4500 12750 4500H12000Z" fill="#E393AB"/>
<path d="M10500 6000V5250C10500 4835.79 10835.8 4500 11250 4500V4500C11664.2 4500 12000 4835.79 12000 5250V5250C12000 5664.21 11664.2 6000 11250 6000H10500Z" fill="#E393AB"/>
<path d="M7500 6000V5250C7500 4835.79 7835.79 4500 8250 4500V4500C8664.21 4500 9000 4835.79 9000 5250V5250C9000 5664.21 8664.21 6000 8250 6000H7500Z" fill="#E393AB"/>
<path d="M6000 4500V3750C6000 3335.79 6335.79 3000 6750 3000V3000C7164.21 3000 7500 3335.79 7500 3750V3750C7500 4164.21 7164.21 4500 6750 4500H6000Z" fill="#E393AB"/>
<path d="M3000 4500V3750C3000 3335.79 3335.79 3000 3750 3000V3000C4164.21 3000 4500 3335.79 4500 3750V3750C4500 4164.21 4164.21 4500 3750 4500H3000Z" fill="#E393AB"/>
<path d="M13500 5250C13500 5664.21 13164.2 6000 12750 6000V6000C12335.8 6000 12000 5664.21 12000 5250V5250C12000 4835.79 12335.8 4500 12750 4500H13500V5250Z" fill="#FE6F2F"/>
<path d="M2250 4500C1835.79 4500 1500 4164.21 1500 3750V3750C1500 3335.79 1835.79 3000 2250 3000V3000C2664.21 3000 3000 3335.79 3000 3750V4500H2250Z" fill="#FE6F2F"/>
<path d="M10500 5250C10500 5664.21 10164.2 6000 9750 6000V6000C9335.79 6000 9000 5664.21 9000 5250V5250C9000 4835.79 9335.79 4500 9750 4500H10500V5250Z" fill="#FE6F2F"/>
<path d="M7500 5250C7500 5664.21 7164.21 6000 6750 6000V6000C6335.79 6000 6000 5664.21 6000 5250V5250C6000 4835.79 6335.79 4500 6750 4500H7500V5250Z" fill="#FE6F2F"/>
<path d="M1500 5250C1500 5664.21 1164.21 6000 750 6000V6000C335.786 6000 0 5664.21 0 5250V5250C0 4835.79 335.786 4500 750 4500H1500L1500 5250Z" fill="#FE6F2F"/>
<path d="M4500 5250C4500 5664.21 4164.21 6000 3750 6000V6000C3335.79 6000 3000 5664.21 3000 5250V5250C3000 4835.79 3335.79 4500 3750 4500H4500V5250Z" fill="#FE6F2F"/>
<path d="M14250 4500C13835.8 4500 13500 4164.21 13500 3750V3750C13500 3335.79 13835.8 3000 14250 3000V3000C14664.2 3000 15000 3335.79 15000 3750V4500H14250Z" fill="#FE6F2F"/>
<path d="M11250 4500C10835.8 4500 10500 4164.21 10500 3750V3750C10500 3335.79 10835.8 3000 11250 3000V3000C11664.2 3000 12000 3335.79 12000 3750V4500H11250Z" fill="#FE6F2F"/>
<path d="M8250 4500C7835.79 4500 7500 4164.21 7500 3750V3750C7500 3335.79 7835.79 3000 8250 3000V3000C8664.21 3000 9000 3335.79 9000 3750V4500H8250Z" fill="#FE6F2F"/>
<path d="M5250 4500C4835.79 4500 4500 4164.21 4500 3750V3750C4500 3335.79 4835.79 3000 5250 3000V3000C5664.21 3000 6000 3335.79 6000 3750V4500H5250Z" fill="#FE6F2F"/>
</svg>
