<svg width="34" height="32" viewBox="0 0 34 32" fill="none" xmlns="http://www.w3.org/2000/svg">
<g clip-path="url(#clip0_2061_247)">
<path d="M2.31805 4.84306C1.59727 3.0363 3.10763 1.12855 5.03157 1.41559L29.5431 5.0726C32.0361 5.44453 32.5677 8.99878 30.4433 10.3552C24.0588 14.4318 20.1254 19.5455 16.9209 28.5955C16.1104 30.8846 12.7785 31.0641 11.8787 28.8087L2.31805 4.84306Z" fill="#FF949A"/>
<path d="M3.47891 3.27323C3.3213 2.86795 3.65792 2.44276 4.08855 2.50318L29.4919 6.0674C30.0861 6.15078 30.1699 6.99664 29.6089 7.20967C19.4906 11.0524 15.6352 15.8574 13.9473 27.1464C13.8596 27.7332 13.0317 27.8384 12.8166 27.2854L3.47891 3.27323Z" fill="#FFCE61"/>
</g>
<defs>
<clipPath id="clip0_2061_247">
<rect width="33.6264" height="32" fill="white"/>
</clipPath>
</defs>
</svg>
